<svg xmlns="http://www.w3.org/2000/svg" version="1.1" xmlns:xlink="http://www.w3.org/1999/xlink" width="511.91998291015625" height="549.75"><svg xmlns="http://www.w3.org/2000/svg" version="1.1" xmlns:xlink="http://www.w3.org/1999/xlink" width="511.91998291015625" height="549.75"><svg xmlns="http://www.w3.org/2000/svg" xmlns:xlink="http://www.w3.org/1999/xlink" width="511.91998291015625" zoomAndPan="magnify" viewBox="0 0 511.91998 549.749984" height="549.75" preserveAspectRatio="xMidYMid meet" version="1.0">
  <defs>
    <clipPath id="99260e6f1a">
      <path d="M 0.078125 18.996094 L 511.761719 18.996094 L 511.761719 530.757812 L 0.078125 530.757812 Z M 0.078125 18.996094 " clip-rule="nonzero"></path>
    </clipPath>
    <clipPath id="451e64b27b">
      <path d="M 255.957031 18.996094 C 114.636719 18.996094 0.078125 133.558594 0.078125 274.878906 C 0.078125 416.195312 114.636719 530.757812 255.957031 530.757812 C 397.277344 530.757812 511.835938 416.195312 511.835938 274.878906 C 511.835938 133.558594 397.277344 18.996094 255.957031 18.996094 Z M 255.957031 18.996094 " clip-rule="nonzero"></path>
    </clipPath>
    <clipPath id="9b93c90736">
      <path d="M 158 328 L 194.886719 328 L 194.886719 377 L 158 377 Z M 158 328 " clip-rule="nonzero"></path>
    </clipPath>
    <clipPath id="85eca7b5ba">
      <path d="M 177.445312 372.636719 C 169.324219 372.636719 163.570312 368.972656 161.707031 364.085938 L 158.261719 366.246094 C 160.492188 372.496094 167.246094 376.808594 177.085938 376.808594 C 188.292969 376.808594 194.765625 372.0625 194.765625 363.003906 C 194.765625 353.300781 182.550781 351.074219 178.238281 349.851562 C 173.277344 348.625 164.4375 347.339844 164.4375 341.011719 C 164.4375 335.6875 168.820312 332.601562 176.726562 332.601562 C 183.691406 332.601562 189.230469 335.6875 190.527344 339.433594 L 194.046875 337.5625 C 192.316406 332.382812 185.566406 328.503906 177.085938 328.503906 C 166.945312 328.503906 159.835938 332.746094 159.835938 341.152344 C 159.835938 350.570312 171.257812 352.289062 176.078125 353.515625 C 180.53125 354.738281 190.230469 356.316406 190.230469 363.148438 C 190.230469 369.335938 186.277344 372.636719 177.433594 372.636719 " clip-rule="nonzero"></path>
    </clipPath>
    <clipPath id="93520cdd81">
      <path d="M 201.046875 328 L 244 328 L 244 377 L 201.046875 377 Z M 201.046875 328 " clip-rule="nonzero"></path>
    </clipPath>
    <clipPath id="ea8de2c8cb">
      <path d="M 224.730469 332.890625 C 231.554688 332.890625 237.019531 335.90625 240.25 340.503906 L 243.625 338.128906 C 239.601562 332.3125 232.984375 328.710938 224.71875 328.710938 C 210.84375 328.710938 201.363281 338.777344 201.363281 352.640625 C 201.363281 366.503906 210.855469 376.570312 224.71875 376.570312 C 232.984375 376.570312 239.589844 372.976562 243.625 367.152344 L 240.25 364.714844 C 237.019531 369.242188 231.554688 372.402344 224.730469 372.402344 C 213.230469 372.402344 205.535156 364.066406 205.535156 352.640625 C 205.535156 341.214844 213.222656 332.878906 224.730469 332.878906 " clip-rule="nonzero"></path>
    </clipPath>
    <clipPath id="d026afd669">
      <path d="M 251.449219 329.296875 L 281.277344 329.296875 L 281.277344 333.175781 L 251.449219 333.175781 Z M 251.449219 333.175781 L 255.617188 333.175781 L 255.617188 350.789062 L 251.449219 350.789062 Z M 251.449219 350.789062 L 279.761719 350.789062 L 279.761719 354.667969 L 251.449219 354.667969 Z M 251.449219 354.667969 L 255.617188 354.667969 L 255.617188 372.132812 L 251.449219 372.132812 Z M 251.449219 372.132812 L 281.277344 372.132812 L 281.277344 376.015625 L 251.449219 376.015625 Z M 251.449219 372.132812 " clip-rule="nonzero"></path>
    </clipPath>
    <clipPath id="1866046cd3">
      <path d="M 333.4375 329.296875 L 368.863281 329.296875 L 368.863281 333.175781 L 333.4375 333.175781 Z M 349.101562 333.175781 L 353.273438 333.175781 L 353.273438 376.015625 L 349.101562 376.015625 Z M 349.101562 333.175781 " clip-rule="nonzero"></path>
    </clipPath>
    <clipPath id="09c0e18d2a">
      <path d="M 373.546875 328 L 410.511719 328 L 410.511719 377 L 373.546875 377 Z M 373.546875 328 " clip-rule="nonzero"></path>
    </clipPath>
    <clipPath id="cff078de58">
      <path d="M 393.660156 349.851562 C 388.699219 348.636719 379.855469 347.339844 379.855469 341.011719 C 379.855469 335.699219 384.242188 332.601562 392.144531 332.601562 C 399.113281 332.601562 404.652344 335.6875 405.949219 339.425781 L 409.46875 337.550781 C 407.738281 332.375 400.988281 328.496094 392.507812 328.496094 C 382.367188 328.496094 375.257812 332.734375 375.257812 341.144531 C 375.257812 350.5625 386.679688 352.28125 391.496094 353.503906 C 395.953125 354.730469 405.660156 356.304688 405.660156 363.140625 C 405.660156 369.3125 401.707031 372.628906 392.867188 372.628906 C 384.746094 372.628906 378.992188 368.964844 377.128906 364.074219 L 373.679688 366.238281 C 375.90625 372.484375 382.667969 376.796875 392.507812 376.796875 C 403.714844 376.796875 410.1875 372.050781 410.1875 362.996094 C 410.1875 353.289062 397.972656 351.066406 393.660156 349.839844 " clip-rule="nonzero"></path>
    </clipPath>
    <clipPath id="57263b9777">
      <path d="M 44.980469 78.25 L 402 78.25 L 402 472 L 44.980469 472 Z M 44.980469 78.25 " clip-rule="nonzero"></path>
    </clipPath>
    <clipPath id="f72629ebd8">
      <path d="M 313.304688 278.039062 C 313.304688 256.527344 332.933594 242.285156 353.632812 242.285156 L 360.621094 242.820312 L 360.621094 295.785156 C 353.898438 301.15625 346.097656 306.273438 337.492188 306.273438 C 326.945312 306.273438 320.40625 302.0625 316.824219 295.230469 L 314.675781 289.671875 C 313.738281 286.183594 313.304688 282.269531 313.304688 278.050781 M 245.179688 217.148438 L 245.757812 219.714844 C 246.949219 225.519531 247.238281 231.539062 246.589844 236.933594 L 187.71875 236.933594 C 190.03125 219.117188 196.375 205.683594 205.542969 198.632812 C 219.242188 202.257812 232.335938 207.703125 244.511719 214.761719 L 245.179688 217.160156 M 160.503906 234.289062 C 150.707031 231.746094 141.585938 227.535156 133.445312 221.988281 L 150.324219 194.125 C 164.1875 192.796875 177.910156 193.34375 191.214844 195.566406 C 175.695312 203.027344 164.828125 216.5625 160.503906 234.289062 M 107.363281 194.199219 L 119.199219 194.199219 L 113.570312 203.335938 C 111.316406 200.433594 109.238281 197.378906 107.355469 194.199219 M 360.898438 300.898438 C 360.898438 301.167969 364.664062 314.34375 364.933594 315.691406 L 401.769531 307.886719 L 401.769531 305.738281 C 394.246094 304.65625 388.058594 296.597656 388.058594 289.339844 L 387.523438 224.273438 C 387.257812 198.726562 363.863281 189.320312 341.816406 189.320312 C 322.1875 189.320312 289.921875 196.308594 289.921875 221.320312 C 289.921875 227.773438 296.640625 232.34375 302.5625 232.34375 C 306.863281 232.34375 314.386719 229.378906 314.386719 224.003906 C 314.386719 207.0625 318.152344 193.355469 337.78125 193.355469 C 361.710938 193.355469 360.628906 221.585938 360.628906 238.261719 C 339.59375 238.261719 311.351562 241.554688 296.230469 256.734375 C 263.324219 211.417969 208.242188 185.53125 150.933594 190.894531 L 150.933594 190.171875 L 105.121094 190.171875 C 98.820312 178.121094 95.230469 164.433594 95.207031 149.890625 C 95.207031 132.238281 101.941406 115.222656 114.054688 102.359375 C 120.125 95.90625 127.28125 90.75 135.152344 87.054688 C 143.007812 83.367188 151.570312 81.136719 160.402344 80.609375 L 162.582031 80.609375 C 166.925781 80.632812 170.859375 83.171875 172.667969 87.113281 C 174.964844 91.53125 176.105469 98.148438 176.105469 106.980469 L 175.972656 113.15625 C 175.839844 115.058594 175.796875 116.777344 175.644531 118.230469 C 180.65625 118.425781 185.636719 117.664062 190.320312 115.914062 C 193.5625 114.679688 196.320312 112.496094 198.265625 109.625 C 199.964844 107 200.851562 103.933594 200.808594 100.804688 C 200.828125 97.910156 200.128906 95.039062 198.761719 92.488281 L 197.082031 89.769531 C 196.199219 88.597656 195.191406 87.515625 194.058594 86.570312 C 191.496094 84.429688 188.601562 82.710938 185.492188 81.496094 C 178.804688 79.128906 171.722656 78.046875 164.621094 78.292969 C 155.789062 78.140625 147.011719 79.796875 138.828125 83.140625 L 135.628906 84.625 C 109.710938 96.152344 92.984375 121.863281 92.933594 150.21875 C 92.953125 164.578125 96.359375 178.140625 102.382812 190.164062 L 51.710938 190.164062 L 46.875 218.664062 L 49.5625 218.664062 C 62.199219 202.257812 72.6875 194.199219 87.734375 194.199219 L 104.554688 194.199219 C 106.820312 198.191406 109.371094 201.988281 112.191406 205.570312 L 44.992188 314.652344 L 44.992188 316.535156 L 148.78125 316.535156 L 153.351562 287.5 L 150.398438 287.5 C 144.480469 298.523438 134.269531 312.5 118.128906 312.5 L 78.605469 312.5 L 132.148438 224.128906 C 140.515625 229.832031 149.890625 234.152344 159.96875 236.757812 C 158.949219 241.636719 158.425781 246.824219 158.425781 252.246094 C 158.425781 290.15625 183.691406 315.421875 221.609375 315.421875 C 249.851562 315.421875 263.820312 299.027344 276.203125 281.261719 L 274.039062 279.390625 C 262.738281 296.074219 245.550781 301.433594 230.472656 300.910156 C 207.632812 300.097656 186.648438 282.085938 186.648438 252.246094 C 186.648438 248.46875 186.914062 244.992188 187.203125 241.480469 L 274.566406 241.480469 C 274.566406 240.019531 274.503906 238.578125 274.390625 237.160156 C 281.492188 243.921875 287.996094 251.363281 293.78125 259.433594 C 288.707031 265.628906 285.621094 273.554688 285.621094 283.679688 C 285.621094 305.964844 299.121094 314.992188 319.121094 315.617188 C 323.074219 333.257812 323.136719 350.921875 319.800781 367.667969 L 319.851562 366.71875 L 294.359375 329.296875 L 290.332031 329.296875 L 290.332031 376.015625 L 294.5 376.015625 L 294.5 336.417969 L 318.800781 372.125 C 308.367188 416.125 274.566406 453.03125 227.765625 465.179688 C 203.054688 471.582031 176.828125 468.285156 154.460938 455.976562 C 132.054688 443.6875 115.195312 423.308594 107.324219 398.996094 L 106.53125 395.941406 C 104.996094 389.859375 107.128906 383.445312 111.996094 379.484375 C 117.335938 374.675781 126.1875 370.683594 138.539062 367.492188 C 141.628906 366.699219 144.53125 365.949219 147.238281 365.445312 C 149.945312 364.941406 152.363281 364.382812 154.453125 364.074219 C 152.929688 357.015625 150.027344 350.324219 145.910156 344.386719 C 143.015625 340.308594 138.941406 337.222656 134.238281 335.542969 C 129.945312 334.132812 125.335938 334 120.96875 335.183594 C 116.914062 336.214844 113.167969 338.230469 110.070312 341.0625 L 106.878906 344.394531 C 105.542969 346.042969 104.410156 347.855469 103.492188 349.777344 C 101.414062 354.132812 100.054688 358.796875 99.488281 363.589844 C 98.59375 373.8125 99.632812 384.113281 102.558594 393.953125 C 105.53125 406.378906 111.007812 418.058594 118.664062 428.289062 L 121.886719 432.230469 C 147.371094 464.335938 189.34375 478.445312 229.042969 468.253906 C 296.457031 450.769531 337.585938 383.179688 322.886719 315.679688 C 336.886719 315.339844 350.523438 310.265625 360.910156 300.921875 " clip-rule="nonzero"></path>
    </clipPath>
    <clipPath id="0685b3bce4">
      <path d="M 405.375 117.269531 L 455.6875 117.269531 L 455.6875 313 L 405.375 313 Z M 405.375 117.269531 " clip-rule="nonzero"></path>
    </clipPath>
    <clipPath id="536d3ef20e">
      <path d="M 445.027344 285.164062 L 445.027344 117.910156 L 405.773438 123.28125 L 405.773438 125.433594 C 415.179688 132.421875 418.144531 138.609375 418.144531 150.980469 L 418.144531 285.164062 C 418.144531 297.523438 416.261719 302.640625 408.191406 310.707031 L 408.191406 312.859375 L 455.515625 312.859375 L 455.515625 310.707031 C 447.984375 302.640625 445.027344 297.535156 445.027344 285.164062 " clip-rule="nonzero"></path>
    </clipPath>
  </defs>
  <g clip-path="url(#99260e6f1a)">
    <g clip-path="url(#451e64b27b)">
      <path fill="#561c25" d="M 0.078125 18.996094 L 511.835938 18.996094 L 511.835938 530.757812 L 0.078125 530.757812 Z M 0.078125 18.996094 " fill-opacity="1" fill-rule="nonzero"></path>
    </g>
  </g>
  <g clip-path="url(#9b93c90736)">
    <g clip-path="url(#85eca7b5ba)">
      <path fill="#ffffff" d="M 39.84375 73.117188 L 460.820312 73.117188 L 460.820312 476.640625 L 39.84375 476.640625 Z M 39.84375 73.117188 " fill-opacity="1" fill-rule="nonzero"></path>
    </g>
  </g>
  <g clip-path="url(#93520cdd81)">
    <g clip-path="url(#ea8de2c8cb)">
      <path fill="#ffffff" d="M 39.84375 73.117188 L 460.820312 73.117188 L 460.820312 476.640625 L 39.84375 476.640625 Z M 39.84375 73.117188 " fill-opacity="1" fill-rule="nonzero"></path>
    </g>
  </g>
  <g clip-path="url(#d026afd669)">
    <path fill="#ffffff" d="M 39.84375 73.117188 L 460.820312 73.117188 L 460.820312 476.640625 L 39.84375 476.640625 Z M 39.84375 73.117188 " fill-opacity="1" fill-rule="nonzero"></path>
  </g>
  <g clip-path="url(#1866046cd3)">
    <path fill="#ffffff" d="M 39.84375 73.117188 L 460.820312 73.117188 L 460.820312 476.640625 L 39.84375 476.640625 Z M 39.84375 73.117188 " fill-opacity="1" fill-rule="nonzero"></path>
  </g>
  <g clip-path="url(#09c0e18d2a)">
    <g clip-path="url(#cff078de58)">
      <path fill="#ffffff" d="M 39.84375 73.117188 L 460.820312 73.117188 L 460.820312 476.640625 L 39.84375 476.640625 Z M 39.84375 73.117188 " fill-opacity="1" fill-rule="nonzero"></path>
    </g>
  </g>
  <g clip-path="url(#57263b9777)">
    <g clip-path="url(#f72629ebd8)">
      <path fill="#ffffff" d="M 39.84375 73.117188 L 460.820312 73.117188 L 460.820312 476.640625 L 39.84375 476.640625 Z M 39.84375 73.117188 " fill-opacity="1" fill-rule="nonzero"></path>
    </g>
  </g>
  <g clip-path="url(#0685b3bce4)">
    <g clip-path="url(#536d3ef20e)">
      <path fill="#ffffff" d="M 39.84375 73.117188 L 460.820312 73.117188 L 460.820312 476.640625 L 39.84375 476.640625 Z M 39.84375 73.117188 " fill-opacity="1" fill-rule="nonzero"></path>
    </g>
  </g>
</svg></svg><style>@media (prefers-color-scheme: light) { :root { filter: none; } }
@media (prefers-color-scheme: dark) { :root { filter: none; } }
</style></svg>